<?xml version="1.0" encoding="UTF-8" standalone="no"?>
<svg
   width="712.82062"
   height="484.823"
   viewBox="0 0 712.82062 484.823"
   fill="none"
   version="1.1"
   id="svg45"
   sodipodi:docname="Group 582 (2).svg"
   inkscape:version="1.3.2 (091e20e, 2023-11-25)"
   xmlns:inkscape="http://www.inkscape.org/namespaces/inkscape"
   xmlns:sodipodi="http://sodipodi.sourceforge.net/DTD/sodipodi-0.dtd"
   xmlns="http://www.w3.org/2000/svg"
   xmlns:svg="http://www.w3.org/2000/svg">
  <sodipodi:namedview
     id="namedview45"
     pagecolor="#ffffff"
     bordercolor="#000000"
     borderopacity="0.25"
     inkscape:showpageshadow="2"
     inkscape:pageopacity="0.0"
     inkscape:pagecheckerboard="0"
     inkscape:deskcolor="#d1d1d1"
     inkscape:zoom="0.20274914"
     inkscape:cx="352.65254"
     inkscape:cy="281.13559"
     inkscape:window-width="1312"
     inkscape:window-height="449"
     inkscape:window-x="0"
     inkscape:window-y="25"
     inkscape:window-maximized="0"
     inkscape:current-layer="svg45" />
  <path
     d="m 0.49428048,345.06911 c 0,0 216.46199952,-43.659 222.38099952,-52.033 5.919,-8.375 96.266,-133.152 107.287,-148.352 11.022,-15.2 51.742,-122.673 69.055,-136.5329995 17.313,-13.86 40.451,-0.061 31.651,17.7029995 -22.653,45.734 -58.921,116.385 -50.59,124.281 8.332,7.896 18.052,9.322 29.979,3.822 11.926,-5.5 122.81,-106.604 145.108,-123.393 22.298,-16.788 35.514,9.028 26.047,20.746 -9.467,11.717 -116.446,114.487 -122.212,125.477 0,0 -10.046,16.195 12.057,9.363 22.103,-6.833 146.63,-84.595 170.982,-94.741 24.351,-10.145 34.768,10.85 22.462,21.853 -12.306,11.003 -148.541,99.584 -163.791,109.534 -15.249,9.95 -7.189,21.202 6.279,20.311 13.468,-0.891 136.378,-50.011 172.047,-53.184 35.67,-3.172 43.807,23.618 7.692,38.054 -36.115,14.436 -147.413,52.186 -188.579,71.456 -41.165,19.27 -44.651,66.399 -30.194,83.528 14.458,17.129 52.387,19.148 79.205,31.801 26.817,12.653 46.184,22.373 42.535,44.444 -3.649,22.072 -49.471,4.504 -80.268,-1.366 -20.359,-3.88 -41.174,-8.184 -52.548,-12.21 -11.373,-4.026 -102.187,-11.194 -123.53,-20.958 -21.343,-9.764 -17.608,-10.531 -29.794,-13.963 -12.187,-3.432 -261.823,71.72 -261.823,71.72"
     stroke="#000000"
     stroke-width="5"
     id="path1" />
  <g
     clip-path="url(#clip0_744_226)"
     id="g45"
     transform="translate(-225.06772,-303.07089)">
    <mask
       id="mask0_744_226"
       maskUnits="userSpaceOnUse"
       x="279"
       y="574"
       width="193"
       height="216">
      <path
         d="M 471.705,745.668 417.431,574.271 279.517,617.942 333.79,789.339 Z"
         fill="#ffffff"
         id="path2" />
    </mask>
    <g
       mask="url(#mask0_744_226)"
       id="g44">
      <path
         d="M 465.501,733.003 419.648,588.197 c -0.949,-2.997 -3.051,-5.494 -5.841,-6.943 -2.791,-1.448 -6.042,-1.729 -9.04,-0.78 l -111.323,35.251 c -2.997,0.949 -5.495,3.051 -6.944,5.841 -1.448,2.791 -1.729,6.043 -0.78,9.04 l 1.561,4.929 c 1.133,0.307 2.172,0.894 3.019,1.707 0.848,0.813 1.478,1.826 1.833,2.945 0.354,1.12 0.422,2.311 0.197,3.464 -0.226,1.152 -0.737,2.23 -1.487,3.134 l 6.23,19.675 c 1.134,0.307 2.172,0.894 3.02,1.707 0.848,0.813 1.478,1.825 1.832,2.945 0.355,1.12 0.422,2.311 0.197,3.463 -0.225,1.153 -0.736,2.23 -1.487,3.134 l 6.23,19.674 c 1.134,0.308 2.172,0.895 3.02,1.707 0.848,0.813 1.478,1.826 1.832,2.946 0.355,1.119 0.423,2.31 0.197,3.463 -0.225,1.153 -0.736,2.23 -1.486,3.134 l 6.23,19.676 c 1.134,0.307 2.172,0.894 3.02,1.707 0.848,0.813 1.478,1.825 1.833,2.945 0.354,1.12 0.422,2.311 0.197,3.463 -0.226,1.153 -0.737,2.231 -1.488,3.134 l 6.23,19.674 c 1.134,0.307 2.172,0.894 3.02,1.706 0.848,0.813 1.478,1.826 1.833,2.946 0.354,1.12 0.422,2.31 0.196,3.463 -0.225,1.153 -0.736,2.231 -1.487,3.134 l 1.561,4.929 c 0.47,1.484 1.228,2.861 2.23,4.053 1.002,1.191 2.229,2.173 3.611,2.891 1.382,0.717 2.892,1.155 4.443,1.288 1.551,0.134 3.113,-0.039 4.598,-0.509 l 111.323,-35.251 c 2.997,-0.949 5.494,-3.05 6.943,-5.84 1.448,-2.791 1.729,-6.042 0.78,-9.039 z"
         fill="#ffffff"
         id="path3" />
      <path
         d="M 465.501,733.003 419.648,588.197 c -0.949,-2.997 -3.051,-5.494 -5.841,-6.943 -2.791,-1.448 -6.042,-1.729 -9.04,-0.78 l -111.323,35.251 c -2.997,0.949 -5.495,3.051 -6.944,5.841 -1.448,2.791 -1.729,6.043 -0.78,9.04 l 1.561,4.929 c 1.133,0.307 2.172,0.894 3.019,1.707 0.848,0.813 1.478,1.826 1.833,2.945 0.354,1.12 0.422,2.311 0.197,3.464 -0.226,1.152 -0.737,2.23 -1.487,3.134 l 6.23,19.675 c 1.134,0.307 2.172,0.894 3.02,1.707 0.848,0.813 1.478,1.825 1.832,2.945 0.355,1.12 0.422,2.311 0.197,3.463 -0.225,1.153 -0.736,2.23 -1.487,3.134 l 6.23,19.674 c 1.134,0.308 2.172,0.895 3.02,1.707 0.848,0.813 1.478,1.826 1.832,2.946 0.355,1.119 0.423,2.31 0.197,3.463 -0.225,1.153 -0.736,2.23 -1.486,3.134 l 6.23,19.676 c 1.134,0.307 2.172,0.894 3.02,1.707 0.848,0.813 1.478,1.825 1.833,2.945 0.354,1.12 0.422,2.311 0.197,3.463 -0.226,1.153 -0.737,2.231 -1.488,3.134 l 6.23,19.674 c 1.134,0.307 2.172,0.894 3.02,1.706 0.848,0.813 1.478,1.826 1.833,2.946 0.354,1.12 0.422,2.31 0.196,3.463 -0.225,1.153 -0.736,2.231 -1.487,3.134 l 1.561,4.929 c 0.47,1.484 1.228,2.861 2.23,4.053 1.002,1.191 2.229,2.173 3.611,2.891 1.382,0.717 2.892,1.155 4.443,1.288 1.551,0.134 3.113,-0.039 4.598,-0.509 l 111.323,-35.251 c 2.997,-0.949 5.494,-3.05 6.943,-5.84 1.448,-2.791 1.729,-6.042 0.78,-9.039 z"
         stroke="#000000"
         stroke-width="4"
         stroke-linecap="round"
         stroke-linejoin="round"
         id="path4" />
      <path
         d="m 351.533,764.848 c -1.325,0.42 -2.744,0.437 -4.079,0.05 -1.335,-0.387 -2.524,-1.161 -3.419,-2.224 -0.895,-1.063 -1.454,-2.368 -1.607,-3.749 -0.153,-1.381 0.107,-2.776 0.747,-4.01 0.64,-1.233 1.631,-2.249 2.848,-2.919 1.218,-0.67 2.606,-0.963 3.991,-0.844 1.384,0.12 2.702,0.647 3.787,1.515 1.085,0.869 1.887,2.04 2.307,3.364 0.562,1.776 0.396,3.703 -0.462,5.356 -0.858,1.653 -2.338,2.898 -4.113,3.461 z"
         stroke="#000000"
         stroke-width="1.51"
         stroke-linecap="round"
         stroke-linejoin="round"
         id="path5" />
      <path
         d="m 341.74,733.923 c -1.324,0.42 -2.744,0.438 -4.078,0.051 -1.335,-0.387 -2.525,-1.161 -3.42,-2.224 -0.894,-1.064 -1.453,-2.368 -1.607,-3.749 -0.153,-1.381 0.107,-2.777 0.747,-4.01 0.64,-1.234 1.631,-2.249 2.849,-2.919 1.217,-0.67 2.606,-0.964 3.99,-0.845 1.385,0.12 2.703,0.647 3.787,1.516 1.085,0.868 1.888,2.039 2.307,3.364 0.562,1.775 0.396,3.702 -0.462,5.355 -0.858,1.654 -2.337,2.899 -4.113,3.461 z"
         stroke="#000000"
         stroke-width="1.51"
         stroke-linecap="round"
         stroke-linejoin="round"
         id="path6" />
      <path
         d="m 331.948,702.998 c -1.325,0.42 -2.744,0.437 -4.078,0.05 -1.334,-0.386 -2.524,-1.16 -3.418,-2.224 -0.895,-1.063 -1.454,-2.367 -1.607,-3.748 -0.153,-1.381 0.107,-2.776 0.747,-4.009 0.64,-1.233 1.631,-2.249 2.849,-2.919 1.217,-0.669 2.605,-0.963 3.989,-0.844 1.385,0.12 2.702,0.647 3.787,1.516 1.084,0.868 1.887,2.038 2.306,3.363 0.562,1.776 0.396,3.702 -0.462,5.355 -0.858,1.654 -2.338,2.898 -4.113,3.46 z"
         stroke="#000000"
         stroke-width="1.51"
         stroke-linecap="round"
         stroke-linejoin="round"
         id="path7" />
      <path
         d="m 322.156,672.075 c -1.325,0.419 -2.744,0.437 -4.078,0.05 -1.334,-0.387 -2.524,-1.161 -3.418,-2.224 -0.895,-1.063 -1.454,-2.367 -1.607,-3.748 -0.153,-1.381 0.107,-2.776 0.746,-4.009 0.64,-1.233 1.631,-2.249 2.848,-2.919 1.217,-0.67 2.606,-0.963 3.99,-0.844 1.384,0.119 2.702,0.646 3.786,1.514 1.085,0.868 1.888,2.038 2.307,3.362 0.563,1.776 0.397,3.703 -0.461,5.356 -0.858,1.654 -2.338,2.899 -4.113,3.462 z"
         stroke="#000000"
         stroke-width="1.51"
         stroke-linecap="round"
         stroke-linejoin="round"
         id="path8" />
      <path
         d="m 312.363,641.15 c -1.324,0.42 -2.743,0.437 -4.078,0.05 -1.334,-0.387 -2.523,-1.161 -3.418,-2.224 -0.894,-1.063 -1.453,-2.367 -1.606,-3.748 -0.154,-1.381 0.106,-2.776 0.746,-4.009 0.64,-1.233 1.631,-2.249 2.848,-2.919 1.218,-0.669 2.606,-0.963 3.99,-0.844 1.384,0.119 2.702,0.647 3.786,1.515 1.085,0.868 1.888,2.038 2.307,3.363 0.562,1.776 0.396,3.702 -0.462,5.355 -0.858,1.654 -2.337,2.899 -4.113,3.461 z"
         stroke="#000000"
         stroke-width="1.51"
         stroke-linecap="round"
         stroke-linejoin="round"
         id="path9" />
      <path
         d="m 429.848,623.088 -59.04,-30.89 36.067,-11.421 c 2.308,-0.73 4.812,-0.514 6.961,0.602 2.149,1.116 3.767,3.039 4.498,5.347 z"
         fill="#000000"
         id="path10" />
      <path
         d="m 436.548,644.532 -29.71,-15.647 22.608,-7.066 z"
         fill="#000000"
         id="path11" />
      <path
         d="m 439.73,654.433 -14.884,-7.721 11.358,-3.549 z"
         fill="#000000"
         id="path12" />
      <path
         d="m 421.659,673.84 c 0.107,0.317 0.305,0.596 0.57,0.801 0.265,0.205 0.584,0.327 0.918,0.351 0.334,0.024 0.668,-0.051 0.959,-0.216 0.292,-0.165 0.528,-0.412 0.68,-0.711 0.151,-0.298 0.211,-0.635 0.172,-0.968 -0.039,-0.332 -0.176,-0.646 -0.393,-0.901 -0.216,-0.255 -0.504,-0.441 -0.825,-0.533 -0.322,-0.093 -0.664,-0.088 -0.983,0.013 -0.433,0.141 -0.791,0.449 -0.997,0.855 -0.206,0.405 -0.242,0.876 -0.101,1.309 z"
         fill="#000000"
         id="path13" />
      <path
         d="m 421.087,660.633 c -0.107,-0.317 -0.305,-0.596 -0.57,-0.8 -0.265,-0.205 -0.584,-0.328 -0.918,-0.352 -0.334,-0.024 -0.668,0.051 -0.959,0.216 -0.292,0.165 -0.528,0.412 -0.68,0.711 -0.151,0.299 -0.211,0.635 -0.172,0.968 0.039,0.332 0.176,0.646 0.393,0.901 0.216,0.255 0.504,0.441 0.825,0.534 0.322,0.092 0.664,0.088 0.983,-0.013 0.432,-0.143 0.79,-0.45 0.996,-0.856 0.205,-0.406 0.242,-0.876 0.102,-1.309 z"
         fill="#000000"
         id="path14" />
      <path
         d="m 424.279,659.634 c -0.183,-0.649 -0.494,-1.255 -0.915,-1.781 -0.421,-0.527 -0.944,-0.964 -1.537,-1.285 -0.593,-0.321 -1.244,-0.52 -1.915,-0.585 -0.672,-0.066 -1.349,0.004 -1.993,0.206 -0.643,0.201 -1.24,0.529 -1.755,0.965 -0.515,0.435 -0.937,0.97 -1.241,1.572 -0.305,0.601 -0.486,1.258 -0.532,1.931 -0.046,0.673 0.043,1.348 0.262,1.986 l 3.854,12.335 c 0.186,0.647 0.498,1.25 0.92,1.775 0.422,0.524 0.944,0.958 1.536,1.278 0.592,0.319 1.242,0.516 1.912,0.581 0.67,0.064 1.345,-0.006 1.987,-0.207 0.643,-0.2 1.238,-0.527 1.752,-0.962 0.514,-0.434 0.936,-0.967 1.24,-1.566 0.305,-0.6 0.487,-1.254 0.536,-1.925 0.048,-0.671 -0.039,-1.345 -0.255,-1.982 z m -8.983,16.349 -3.852,-12.335 c -0.36,-1.062 -0.504,-2.185 -0.423,-3.303 0.08,-1.118 0.383,-2.209 0.892,-3.208 0.508,-0.999 1.211,-1.887 2.067,-2.61 0.856,-0.724 1.849,-1.269 2.919,-1.603 1.07,-0.335 2.196,-0.452 3.312,-0.344 1.116,0.107 2.199,0.436 3.186,0.968 0.986,0.533 1.857,1.257 2.559,2.13 0.703,0.874 1.224,1.879 1.532,2.957 l 3.856,12.334 c 0.36,1.062 0.504,2.185 0.424,3.303 -0.08,1.118 -0.383,2.209 -0.891,3.208 -0.508,1 -1.211,1.887 -2.067,2.611 -0.857,0.724 -1.849,1.269 -2.919,1.603 -1.07,0.335 -2.196,0.452 -3.312,0.345 -1.116,-0.107 -2.199,-0.437 -3.186,-0.969 -0.987,-0.532 -1.857,-1.256 -2.56,-2.129 -0.703,-0.874 -1.224,-1.879 -1.533,-2.957"
         fill="#000000"
         id="path15" />
      <path
         d="m 392.283,652.375 c -0.331,0.106 -0.686,0.111 -1.02,0.015 -0.334,-0.096 -0.632,-0.289 -0.856,-0.555 -0.225,-0.266 -0.365,-0.592 -0.404,-0.938 -0.039,-0.345 0.026,-0.694 0.186,-1.003 0.16,-0.309 0.407,-0.563 0.712,-0.731 0.304,-0.168 0.652,-0.242 0.998,-0.212 0.347,0.03 0.676,0.161 0.948,0.379 0.271,0.217 0.472,0.51 0.577,0.841 0.07,0.22 0.096,0.452 0.076,0.681 -0.02,0.23 -0.084,0.454 -0.191,0.659 -0.106,0.204 -0.251,0.386 -0.428,0.535 -0.176,0.148 -0.38,0.261 -0.6,0.33"
         fill="#000000"
         id="path16" />
      <path
         d="m 396.024,664.187 c -0.331,0.106 -0.686,0.111 -1.02,0.015 -0.334,-0.096 -0.632,-0.289 -0.857,-0.555 -0.224,-0.265 -0.364,-0.591 -0.403,-0.937 -0.039,-0.345 0.025,-0.694 0.185,-1.003 0.159,-0.309 0.407,-0.563 0.711,-0.732 0.304,-0.168 0.652,-0.242 0.998,-0.212 0.346,0.029 0.676,0.161 0.948,0.377 0.271,0.217 0.473,0.51 0.578,0.841 0.141,0.444 0.099,0.926 -0.115,1.339 -0.215,0.414 -0.585,0.725 -1.029,0.865"
         fill="#000000"
         id="path17" />
      <path
         d="m 399.764,675.998 c -0.331,0.106 -0.687,0.111 -1.021,0.015 -0.334,-0.096 -0.632,-0.29 -0.856,-0.555 -0.224,-0.266 -0.365,-0.592 -0.404,-0.938 -0.038,-0.345 0.026,-0.695 0.186,-1.004 0.16,-0.308 0.408,-0.563 0.713,-0.73 0.304,-0.168 0.652,-0.242 0.998,-0.212 0.347,0.03 0.677,0.162 0.948,0.379 0.271,0.217 0.472,0.511 0.577,0.842 0.14,0.444 0.099,0.926 -0.116,1.339 -0.214,0.413 -0.584,0.725 -1.028,0.865"
         fill="#000000"
         id="path18" />
      <path
         d="m 403.504,687.81 c -0.331,0.105 -0.686,0.109 -1.019,0.013 -0.334,-0.097 -0.631,-0.291 -0.855,-0.556 -0.223,-0.266 -0.363,-0.592 -0.401,-0.937 -0.039,-0.346 0.026,-0.694 0.186,-1.003 0.16,-0.308 0.408,-0.562 0.712,-0.729 0.305,-0.168 0.652,-0.241 0.998,-0.211 0.346,0.03 0.675,0.161 0.946,0.378 0.272,0.217 0.472,0.51 0.577,0.841 0.141,0.444 0.099,0.926 -0.115,1.339 -0.215,0.413 -0.585,0.725 -1.029,0.865 z"
         fill="#000000"
         id="path19" />
      <path
         d="m 407.244,699.622 c -0.331,0.105 -0.685,0.109 -1.019,0.013 -0.334,-0.097 -0.631,-0.291 -0.854,-0.556 -0.224,-0.266 -0.364,-0.592 -0.402,-0.938 -0.038,-0.345 0.027,-0.693 0.187,-1.002 0.16,-0.308 0.408,-0.562 0.712,-0.729 0.304,-0.168 0.651,-0.241 0.997,-0.211 0.346,0.029 0.676,0.161 0.947,0.378 0.271,0.217 0.472,0.51 0.576,0.841 0.141,0.444 0.099,0.926 -0.115,1.339 -0.215,0.413 -0.585,0.725 -1.029,0.865 z"
         fill="#000000"
         id="path20" />
      <path
         d="m 380.472,656.116 c -0.332,0.105 -0.687,0.109 -1.021,0.013 -0.333,-0.097 -0.631,-0.291 -0.855,-0.556 -0.224,-0.266 -0.364,-0.593 -0.402,-0.938 -0.038,-0.345 0.026,-0.694 0.186,-1.003 0.16,-0.308 0.408,-0.563 0.713,-0.73 0.304,-0.168 0.652,-0.241 0.998,-0.212 0.346,0.03 0.676,0.162 0.947,0.379 0.271,0.217 0.472,0.51 0.577,0.842 0.07,0.219 0.096,0.451 0.076,0.681 -0.02,0.23 -0.085,0.453 -0.191,0.658 -0.106,0.205 -0.252,0.387 -0.428,0.535 -0.177,0.149 -0.381,0.261 -0.6,0.331 z"
         fill="#000000"
         id="path21" />
      <path
         d="m 384.212,667.928 c -0.331,0.105 -0.686,0.109 -1.02,0.013 -0.334,-0.097 -0.631,-0.29 -0.855,-0.556 -0.224,-0.266 -0.364,-0.592 -0.403,-0.937 -0.038,-0.346 0.027,-0.695 0.186,-1.003 0.16,-0.309 0.408,-0.563 0.712,-0.731 0.304,-0.167 0.651,-0.241 0.998,-0.212 0.346,0.03 0.676,0.161 0.947,0.378 0.272,0.217 0.473,0.509 0.578,0.841 0.14,0.444 0.099,0.925 -0.116,1.339 -0.214,0.413 -0.584,0.724 -1.028,0.865"
         fill="#000000"
         id="path22" />
      <path
         d="m 387.952,679.739 c -0.331,0.105 -0.687,0.109 -1.02,0.013 -0.334,-0.097 -0.632,-0.291 -0.856,-0.557 -0.224,-0.266 -0.363,-0.592 -0.402,-0.937 -0.038,-0.346 0.027,-0.695 0.187,-1.003 0.16,-0.309 0.408,-0.563 0.713,-0.731 0.304,-0.167 0.652,-0.241 0.998,-0.211 0.346,0.03 0.676,0.162 0.947,0.38 0.271,0.217 0.472,0.51 0.577,0.841 0.14,0.444 0.099,0.926 -0.116,1.339 -0.214,0.414 -0.584,0.725 -1.028,0.866 z"
         fill="#000000"
         id="path23" />
      <path
         d="m 391.692,691.551 c -0.331,0.104 -0.686,0.109 -1.019,0.012 -0.334,-0.097 -0.631,-0.29 -0.855,-0.556 -0.223,-0.266 -0.363,-0.592 -0.401,-0.937 -0.039,-0.345 0.026,-0.694 0.186,-1.002 0.16,-0.309 0.408,-0.563 0.713,-0.73 0.304,-0.167 0.651,-0.241 0.997,-0.211 0.346,0.03 0.675,0.162 0.946,0.379 0.272,0.217 0.472,0.509 0.577,0.84 0.141,0.444 0.099,0.926 -0.115,1.339 -0.215,0.414 -0.585,0.725 -1.029,0.866 z"
         fill="#000000"
         id="path24" />
      <path
         d="m 395.432,703.363 c -0.331,0.104 -0.685,0.109 -1.019,0.012 -0.333,-0.097 -0.631,-0.29 -0.854,-0.556 -0.224,-0.266 -0.364,-0.592 -0.402,-0.937 -0.038,-0.345 0.027,-0.694 0.187,-1.002 0.16,-0.309 0.408,-0.563 0.712,-0.73 0.304,-0.167 0.651,-0.241 0.997,-0.211 0.346,0.03 0.676,0.162 0.947,0.379 0.271,0.217 0.472,0.509 0.576,0.84 0.141,0.444 0.1,0.926 -0.115,1.339 -0.215,0.414 -0.585,0.725 -1.029,0.866 z"
         fill="#000000"
         id="path25" />
      <path
         d="m 368.661,659.856 c -0.332,0.105 -0.687,0.109 -1.021,0.013 -0.333,-0.097 -0.631,-0.291 -0.855,-0.556 -0.224,-0.266 -0.364,-0.593 -0.402,-0.938 -0.038,-0.345 0.026,-0.694 0.186,-1.003 0.16,-0.308 0.408,-0.563 0.713,-0.73 0.304,-0.168 0.652,-0.241 0.998,-0.212 0.346,0.03 0.676,0.162 0.947,0.379 0.271,0.217 0.472,0.51 0.577,0.842 0.141,0.444 0.099,0.925 -0.115,1.339 -0.215,0.413 -0.584,0.725 -1.028,0.866 z"
         fill="#000000"
         id="path26" />
      <path
         d="m 372.401,671.668 c -0.331,0.105 -0.686,0.109 -1.02,0.013 -0.334,-0.097 -0.631,-0.29 -0.855,-0.556 -0.224,-0.266 -0.364,-0.592 -0.403,-0.937 -0.038,-0.346 0.027,-0.695 0.186,-1.003 0.16,-0.309 0.408,-0.563 0.712,-0.731 0.304,-0.167 0.652,-0.241 0.998,-0.212 0.346,0.03 0.676,0.161 0.947,0.378 0.272,0.217 0.473,0.51 0.578,0.841 0.14,0.444 0.099,0.925 -0.116,1.338 -0.214,0.414 -0.584,0.725 -1.028,0.866"
         fill="#000000"
         id="path27" />
      <path
         d="m 376.141,683.479 c -0.331,0.105 -0.686,0.109 -1.02,0.013 -0.334,-0.097 -0.632,-0.291 -0.856,-0.557 -0.224,-0.266 -0.363,-0.592 -0.402,-0.937 -0.038,-0.346 0.027,-0.695 0.187,-1.003 0.16,-0.309 0.408,-0.563 0.713,-0.731 0.304,-0.167 0.652,-0.24 0.998,-0.211 0.346,0.03 0.676,0.162 0.947,0.38 0.271,0.217 0.472,0.51 0.577,0.841 0.14,0.444 0.098,0.926 -0.116,1.339 -0.215,0.414 -0.584,0.725 -1.028,0.866 z"
         fill="#000000"
         id="path28" />
      <path
         d="m 379.881,695.291 c -0.331,0.104 -0.686,0.109 -1.019,0.012 -0.334,-0.097 -0.631,-0.29 -0.855,-0.556 -0.223,-0.266 -0.363,-0.592 -0.401,-0.937 -0.038,-0.345 0.026,-0.694 0.186,-1.002 0.16,-0.309 0.408,-0.563 0.713,-0.73 0.304,-0.167 0.651,-0.241 0.997,-0.211 0.346,0.03 0.675,0.162 0.946,0.379 0.272,0.217 0.472,0.509 0.577,0.84 0.14,0.444 0.099,0.926 -0.116,1.339 -0.214,0.414 -0.584,0.725 -1.028,0.866 z"
         fill="#000000"
         id="path29" />
      <path
         d="m 383.621,707.103 c -0.331,0.104 -0.685,0.109 -1.019,0.012 -0.333,-0.097 -0.631,-0.29 -0.854,-0.556 -0.224,-0.266 -0.364,-0.592 -0.402,-0.937 -0.038,-0.345 0.027,-0.694 0.187,-1.002 0.16,-0.309 0.408,-0.563 0.712,-0.73 0.304,-0.167 0.651,-0.241 0.997,-0.211 0.346,0.03 0.676,0.162 0.947,0.379 0.271,0.217 0.472,0.509 0.576,0.84 0.141,0.444 0.099,0.926 -0.115,1.339 -0.215,0.414 -0.585,0.725 -1.029,0.866 z"
         fill="#000000"
         id="path30" />
      <path
         d="m 356.849,663.596 c -0.332,0.105 -0.687,0.11 -1.021,0.013 -0.333,-0.097 -0.631,-0.29 -0.855,-0.556 -0.224,-0.266 -0.364,-0.592 -0.402,-0.938 -0.038,-0.345 0.026,-0.694 0.186,-1.003 0.161,-0.308 0.408,-0.562 0.713,-0.73 0.304,-0.167 0.652,-0.241 0.998,-0.211 0.346,0.03 0.676,0.161 0.947,0.379 0.271,0.217 0.472,0.51 0.577,0.841 0.07,0.22 0.096,0.451 0.076,0.681 -0.02,0.23 -0.085,0.454 -0.191,0.658 -0.106,0.205 -0.251,0.387 -0.428,0.536 -0.176,0.148 -0.381,0.26 -0.6,0.33 z"
         fill="#000000"
         id="path31" />
      <path
         d="m 360.589,675.408 c -0.331,0.105 -0.686,0.11 -1.02,0.013 -0.334,-0.097 -0.631,-0.29 -0.855,-0.556 -0.224,-0.265 -0.364,-0.592 -0.403,-0.937 -0.038,-0.345 0.027,-0.694 0.186,-1.003 0.16,-0.308 0.408,-0.563 0.712,-0.73 0.304,-0.168 0.652,-0.242 0.998,-0.212 0.346,0.029 0.676,0.161 0.947,0.377 0.272,0.217 0.473,0.51 0.578,0.841 0.141,0.444 0.099,0.926 -0.116,1.339 -0.214,0.413 -0.584,0.725 -1.028,0.865"
         fill="#000000"
         id="path32" />
      <path
         d="m 368.069,699.031 c -0.331,0.105 -0.686,0.109 -1.019,0.012 -0.334,-0.096 -0.631,-0.29 -0.855,-0.556 -0.223,-0.266 -0.363,-0.592 -0.401,-0.937 -0.038,-0.345 0.027,-0.694 0.187,-1.002 0.16,-0.308 0.407,-0.562 0.712,-0.73 0.304,-0.167 0.651,-0.24 0.997,-0.211 0.346,0.03 0.675,0.162 0.947,0.379 0.271,0.217 0.471,0.51 0.576,0.841 0.141,0.444 0.099,0.925 -0.115,1.339 -0.215,0.413 -0.585,0.724 -1.029,0.865 z"
         fill="#000000"
         id="path33" />
      <path
         d="m 371.81,710.843 c -0.332,0.105 -0.686,0.109 -1.02,0.012 -0.333,-0.097 -0.631,-0.29 -0.854,-0.556 -0.224,-0.266 -0.364,-0.592 -0.402,-0.937 -0.038,-0.345 0.027,-0.694 0.187,-1.002 0.16,-0.308 0.408,-0.562 0.712,-0.73 0.304,-0.167 0.651,-0.241 0.997,-0.211 0.346,0.03 0.676,0.162 0.947,0.379 0.271,0.217 0.472,0.51 0.577,0.841 0.14,0.444 0.099,0.925 -0.116,1.339 -0.215,0.413 -0.584,0.724 -1.028,0.865 z"
         fill="#000000"
         id="path34" />
      <path
         d="m 345.037,667.336 c -0.332,0.105 -0.687,0.11 -1.02,0.013 -0.334,-0.097 -0.632,-0.291 -0.855,-0.557 -0.224,-0.266 -0.364,-0.592 -0.402,-0.937 -0.038,-0.346 0.027,-0.695 0.187,-1.003 0.16,-0.308 0.408,-0.563 0.712,-0.73 0.305,-0.168 0.652,-0.241 0.998,-0.211 0.346,0.03 0.676,0.162 0.947,0.379 0.272,0.217 0.472,0.51 0.577,0.841 0.07,0.22 0.096,0.451 0.076,0.681 -0.02,0.23 -0.085,0.454 -0.191,0.659 -0.106,0.205 -0.252,0.387 -0.429,0.535 -0.176,0.149 -0.38,0.261 -0.6,0.33 z"
         fill="#000000"
         id="path35" />
      <path
         d="m 348.777,679.148 c -0.331,0.105 -0.686,0.11 -1.02,0.013 -0.333,-0.097 -0.631,-0.291 -0.855,-0.556 -0.223,-0.266 -0.363,-0.592 -0.402,-0.938 -0.038,-0.345 0.027,-0.694 0.187,-1.002 0.159,-0.309 0.407,-0.563 0.711,-0.73 0.305,-0.168 0.652,-0.242 0.998,-0.212 0.346,0.029 0.676,0.161 0.947,0.378 0.272,0.216 0.473,0.509 0.578,0.84 0.07,0.22 0.095,0.451 0.075,0.681 -0.019,0.23 -0.084,0.454 -0.191,0.658 -0.106,0.205 -0.252,0.387 -0.428,0.535 -0.177,0.149 -0.381,0.261 -0.601,0.33"
         fill="#000000"
         id="path36" />
      <path
         d="m 352.517,690.959 c -0.331,0.105 -0.686,0.11 -1.02,0.013 -0.334,-0.097 -0.631,-0.291 -0.855,-0.557 -0.224,-0.266 -0.364,-0.592 -0.402,-0.938 -0.038,-0.345 0.027,-0.694 0.187,-1.003 0.16,-0.308 0.409,-0.562 0.713,-0.729 0.305,-0.168 0.652,-0.241 0.998,-0.211 0.347,0.03 0.676,0.162 0.947,0.379 0.271,0.218 0.472,0.51 0.577,0.842 0.07,0.22 0.095,0.451 0.075,0.681 -0.02,0.23 -0.085,0.454 -0.191,0.658 -0.106,0.205 -0.252,0.387 -0.428,0.535 -0.177,0.149 -0.381,0.261 -0.601,0.33 z"
         fill="#000000"
         id="path37" />
      <path
         d="m 356.257,702.771 c -0.331,0.105 -0.686,0.109 -1.019,0.012 -0.333,-0.097 -0.631,-0.29 -0.854,-0.556 -0.224,-0.266 -0.363,-0.592 -0.401,-0.937 -0.038,-0.346 0.027,-0.694 0.187,-1.002 0.16,-0.309 0.408,-0.562 0.712,-0.73 0.304,-0.167 0.651,-0.24 0.997,-0.211 0.346,0.03 0.676,0.162 0.947,0.379 0.271,0.217 0.471,0.51 0.576,0.841 0.07,0.22 0.095,0.451 0.076,0.681 -0.02,0.23 -0.085,0.454 -0.192,0.658 -0.106,0.205 -0.251,0.387 -0.428,0.535 -0.177,0.149 -0.381,0.261 -0.601,0.33 z"
         fill="#000000"
         id="path38" />
      <path
         d="m 359.998,714.583 c -0.332,0.105 -0.686,0.109 -1.02,0.012 -0.333,-0.097 -0.63,-0.291 -0.854,-0.556 -0.223,-0.266 -0.363,-0.592 -0.401,-0.937 -0.038,-0.346 0.027,-0.694 0.187,-1.003 0.16,-0.308 0.408,-0.562 0.712,-0.729 0.305,-0.167 0.652,-0.241 0.998,-0.211 0.346,0.03 0.675,0.162 0.946,0.379 0.271,0.217 0.472,0.51 0.577,0.841 0.069,0.22 0.095,0.451 0.075,0.681 -0.02,0.23 -0.085,0.453 -0.191,0.658 -0.107,0.205 -0.252,0.387 -0.429,0.535 -0.176,0.149 -0.38,0.261 -0.6,0.33 z"
         fill="#000000"
         id="path39" />
      <path
         d="m 364.329,687.219 c -0.331,0.105 -0.686,0.11 -1.02,0.013 -0.334,-0.097 -0.632,-0.29 -0.856,-0.556 -0.224,-0.266 -0.363,-0.593 -0.402,-0.938 -0.038,-0.346 0.027,-0.695 0.187,-1.003 0.16,-0.309 0.408,-0.563 0.713,-0.73 0.304,-0.168 0.652,-0.241 0.998,-0.211 0.346,0.03 0.676,0.162 0.947,0.379 0.271,0.217 0.472,0.51 0.577,0.842 0.14,0.444 0.099,0.925 -0.116,1.339 -0.214,0.413 -0.584,0.724 -1.028,0.865 z"
         fill="#000000"
         id="path40" />
      <path
         d="m 387.697,754.873 -5.09,-16.074 c -0.168,-0.533 -0.117,-1.11 0.14,-1.606 0.257,-0.496 0.699,-0.869 1.231,-1.04 l 16.075,-5.09 c 0.533,-0.167 1.111,-0.116 1.606,0.141 0.496,0.257 0.87,0.7 1.039,1.233 l 5.09,16.074 c 0.165,0.532 0.113,1.108 -0.144,1.602 -0.258,0.494 -0.7,0.866 -1.23,1.036 l -16.076,5.09 c -0.532,0.167 -1.109,0.116 -1.605,-0.141 -0.495,-0.257 -0.868,-0.7 -1.038,-1.232"
         fill="#000000"
         id="path41" />
      <path
         d="m 348.526,631.173 -5.089,-16.072 c -0.167,-0.532 -0.117,-1.11 0.14,-1.605 0.257,-0.496 0.7,-0.87 1.232,-1.04 l 16.075,-5.091 c 0.532,-0.165 1.108,-0.113 1.602,0.145 0.494,0.258 0.867,0.7 1.036,1.231 l 5.089,16.072 c 0.167,0.531 0.117,1.107 -0.139,1.602 -0.256,0.494 -0.697,0.868 -1.227,1.039 l -16.075,5.091 c -0.533,0.166 -1.11,0.116 -1.605,-0.141 -0.495,-0.257 -0.869,-0.7 -1.039,-1.231 z"
         fill="#000000"
         id="path42" />
      <path
         d="m 396.574,748.006 c -0.861,0.272 -1.783,0.284 -2.65,0.032 -0.867,-0.252 -1.641,-0.755 -2.222,-1.446 -0.581,-0.69 -0.944,-1.538 -1.044,-2.436 -0.099,-0.897 0.07,-1.804 0.486,-2.605 0.416,-0.801 1.06,-1.461 1.851,-1.897 0.791,-0.435 1.693,-0.626 2.593,-0.548 0.899,0.077 1.756,0.42 2.461,0.984 0.704,0.564 1.226,1.325 1.499,2.186 0.365,1.154 0.257,2.406 -0.301,3.481 -0.557,1.074 -1.519,1.883 -2.673,2.249 z"
         fill="#ffffff"
         id="path43" />
      <path
         d="m 357.405,624.31 c -0.861,0.273 -1.784,0.284 -2.651,0.033 -0.868,-0.252 -1.641,-0.755 -2.222,-1.446 -0.582,-0.691 -0.945,-1.539 -1.045,-2.436 -0.099,-0.898 0.07,-1.805 0.486,-2.607 0.416,-0.801 1.06,-1.462 1.852,-1.897 0.791,-0.435 1.694,-0.626 2.593,-0.549 0.9,0.078 1.757,0.421 2.462,0.986 0.705,0.564 1.226,1.325 1.499,2.186 0.365,1.154 0.257,2.406 -0.3,3.481 -0.558,1.075 -1.52,1.884 -2.674,2.249 z"
         fill="#ffffff"
         id="path44" />
    </g>
  </g>
  <defs
     id="defs45">
    <clipPath
       id="clip0_744_226">
      <rect
         width="179.785"
         height="144.664"
         fill="#ffffff"
         transform="rotate(72.4293,-183.39501,572.15613)"
         id="rect45"
         x="0"
         y="0" />
    </clipPath>
  </defs>
</svg>
